<?xml version="1.0" encoding="iso-8859-1"?>
<!-- Generator: Adobe Illustrator 19.0.0, SVG Export Plug-In . SVG Version: 6.00 Build 0)  -->
<svg version="1.1" id="Layer_1" xmlns="http://www.w3.org/2000/svg" xmlns:xlink="http://www.w3.org/1999/xlink" x="0px" y="0px"
	 viewBox="0 0 296.999 296.999" style="enable-background:new 0 0 296.999 296.999;" xml:space="preserve">
<g id="XMLID_42_">
	<g>
		<path d="M20.068,254.355h256.865v-52.738c-21.673-0.602-33.653-6.04-44.279-10.877c-10.786-4.896-20.098-9.131-39.995-9.131
			c-19.907,0-29.218,4.234-40.005,9.131c-11.268,5.127-24.051,10.937-48.303,10.937c-24.242,0-37.025-5.81-48.293-10.937
			c-10.034-4.555-18.793-8.539-35.991-9.071v72.686H20.068z M92.311,138.465h79.267v-29.6H92.311V138.465z M104.351,181.61
			c19.907,0,29.218-4.234,40.005-9.131c7.455-3.391,15.572-7.084,27.222-9.191v-4.756H92.311v22.466
			C95.883,181.389,99.846,181.61,104.351,181.61z M171.578,88.797V65.72c0-23.79,19.355-43.145,43.145-43.145
			s43.145,19.355,43.145,43.145c0,5.539-4.485,10.034-10.034,10.034c-5.539,0-10.034-4.495-10.034-10.034
			c0-12.723-10.345-23.078-23.078-23.078c-12.723,0-23.078,10.355-23.078,23.078v95.833c0.341,0,0.672-0.01,1.013-0.01
			c24.242,0,37.025,5.81,48.293,10.937c10.034,4.555,18.793,8.539,35.981,9.071v-66.163c0-5.539,4.495-10.034,10.034-10.034
			c5.549,0,10.034,4.495,10.034,10.034V264.39c0,5.539-4.485,10.034-10.034,10.034H10.034C4.495,274.424,0,269.929,0,264.39V115.387
			c0-5.539,4.495-10.034,10.034-10.034c5.549,0,10.034,4.495,10.034,10.034v46.216c21.683,0.602,33.653,6.04,44.289,10.877
			c2.659,1.204,5.228,2.368,7.887,3.442V65.72c0-23.79,19.355-43.145,43.145-43.145s43.145,19.355,43.145,43.145
			c0,5.539-4.485,10.034-10.034,10.034c-5.539,0-10.034-4.495-10.034-10.034c0-12.723-10.345-23.078-23.078-23.078
			c-12.723,0-23.078,10.355-23.078,23.078v23.078L171.578,88.797L171.578,88.797z"/>
		<path style="fill:#67F0FF;" d="M20.068,254.355V181.67c17.198,0.532,25.957,4.515,35.991,9.071
			c11.268,5.127,24.051,10.937,48.293,10.937c24.252,0,37.035-5.81,48.303-10.937c10.786-4.896,20.098-9.131,40.005-9.131
			c19.897,0,29.208,4.234,39.995,9.131c10.626,4.836,22.606,10.275,44.279,10.877v52.738H20.068V254.355z"/>
	</g>
</g>
<g>
</g>
<g>
</g>
<g>
</g>
<g>
</g>
<g>
</g>
<g>
</g>
<g>
</g>
<g>
</g>
<g>
</g>
<g>
</g>
<g>
</g>
<g>
</g>
<g>
</g>
<g>
</g>
<g>
</g>
</svg>
